<svg width="24" height="24" viewBox="0 0 24 24" fill="none" xmlns="http://www.w3.org/2000/svg">
<path d="M20.2458 15.1228L16.6921 13.9383C16.2776 13.8006 15.8512 14.0337 15.7462 14.4585C15.7462 14.4585 15.5815 15.1077 15.3103 15.7823C14.9324 16.7249 13.1265 17.6247 9.7494 14.2501C6.3747 10.8748 7.27446 9.06815 8.21798 8.68949C8.8926 8.41901 9.54177 8.25514 9.54177 8.25514C9.96579 8.14854 10.2005 7.72215 10.0621 7.30769L8.87669 3.75494C8.73986 3.33968 8.2673 3 7.83055 3C7.83055 3 7.06205 3.00557 6.14002 3.28877C4.74622 3.71835 3 4.79228 3 7.5002C3 12.0004 6.93715 15.9382 6.93715 15.9382C7.24662 16.2476 7.75259 16.7528 8.06205 17.0622C8.06205 17.0622 12 21 16.5004 21C19.2084 21 20.2824 19.2531 20.7112 17.8601C20.9952 16.9389 21 16.1705 21 16.1705C21.0008 15.7329 20.6603 15.2612 20.2458 15.1228Z" fill="white"/>
</svg>
