<svg width="16" height="16" viewBox="0 0 16 16" fill="none" xmlns="http://www.w3.org/2000/svg">
<path fill-rule="evenodd" clip-rule="evenodd" d="M1.00205 4.54628C1 4.7352 1 4.94507 1 5.18V9.82C1 10.9212 1 12.4719 1.21091 12.894C1.4045 13.2814 1.71862 13.5955 2.10604 13.7891C2.52814 14 3.07876 14 4.18 14H11.82C12.9212 14 13.4719 14 13.894 13.7891C14.2814 13.5955 14.5955 13.2814 14.7891 12.894C15 12.4719 15 10.9212 15 9.82V5.18C15 4.94507 15 4.7352 14.998 4.54628L8.92091 10.0506C8.37924 10.4719 7.62075 10.4719 7.07909 10.0506L1.00205 4.54628ZM1.65464 2.52013L8 8.23319L14.3454 2.52013C14.2106 2.39763 14.0589 2.29334 13.894 2.21091C13.4719 2 12.9212 2 11.82 2H4.18C3.07876 2 2.52814 2 2.10604 2.21091C1.94107 2.29334 1.78938 2.39763 1.65464 2.52013Z" fill="white"/>
</svg>
